# xmcd
#
# Track frame offsets: 
#        150
#        23095
#        44280
#        61855
#        74830
#        93192
#        108535
#        126272
#        146130
#        162455
#        181300
#        196515
#        214477
#        232687
#        255692
#
# Disc length: 3662 seconds
#
# Revision: 2
# Processed by: cddbd v1.5.2PL0 Copyright (c) Steve Scherf et al.
# Submitted via: ExactAudioCopy v0.99pb4
#
DISCID=d70e4c0f
DTITLE=Chris and Johnny - Different Waters
DYEAR=1992
DGENRE=Pop
TTITLE0=Freedom
TTITLE1=Inside Emotion
TTITLE2=The Garden
TTITLE3=Holding On
TTITLE4=Satisfied Land
TTITLE5=4 am Blues
TTITLE6=Desert Heart
TTITLE7=She Holds My Heart Out In The Wind
TTITLE8=Missouri River
TTITLE9=Take My Hand
TTITLE10=Pancho and Lefty
TTITLE11=Darkness
TTITLE12=Campfire On The Taylor Fork
TTITLE13=Storm
TTITLE14=Within
EXTD=
EXTT0=
EXTT1=
EXTT2=
EXTT3=
EXTT4=
EXTT5=
EXTT6=
EXTT7=
EXTT8=
EXTT9=
EXTT10=
EXTT11=
EXTT12=
EXTT13=
EXTT14=
PLAYORDER=
